<svg width="24" height="24" viewBox="0 0 24 24" fill="none" xmlns="http://www.w3.org/2000/svg">
<path d="M2 8.25C1.64583 8.25 1.34917 8.13 1.11 7.89C0.87 7.65083 0.75 7.35417 0.75 7V2C0.75 1.64583 0.87 1.34875 1.11 1.10875C1.34917 0.869583 1.64583 0.75 2 0.75H7C7.35417 0.75 7.65125 0.869583 7.89125 1.10875C8.13042 1.34875 8.25 1.64583 8.25 2C8.25 2.35417 8.13042 2.65083 7.89125 2.89C7.65125 3.13 7.35417 3.25 7 3.25H5L8.03125 6.28125C8.26042 6.51042 8.375 6.79167 8.375 7.125C8.375 7.45833 8.25 7.75 8 8C7.77083 8.22917 7.47917 8.34375 7.125 8.34375C6.77083 8.34375 6.47917 8.22917 6.25 8L3.25 5V7C3.25 7.35417 3.13042 7.65083 2.89125 7.89C2.65125 8.13 2.35417 8.25 2 8.25ZM16 8C15.7708 7.77083 15.6562 7.47917 15.6562 7.125C15.6562 6.77083 15.7708 6.47917 16 6.25L19 3.25H17C16.6458 3.25 16.3492 3.13 16.11 2.89C15.87 2.65083 15.75 2.35417 15.75 2C15.75 1.64583 15.87 1.34875 16.11 1.10875C16.3492 0.869583 16.6458 0.75 17 0.75H22C22.3542 0.75 22.6508 0.869583 22.89 1.10875C23.13 1.34875 23.25 1.64583 23.25 2V7C23.25 7.35417 23.13 7.65083 22.89 7.89C22.6508 8.13 22.3542 8.25 22 8.25C21.6458 8.25 21.3492 8.13 21.11 7.89C20.87 7.65083 20.75 7.35417 20.75 7V5L17.7188 8.03125C17.4896 8.26042 17.2083 8.375 16.875 8.375C16.5417 8.375 16.25 8.25 16 8ZM17 23.25C16.6458 23.25 16.3492 23.13 16.11 22.89C15.87 22.6508 15.75 22.3542 15.75 22C15.75 21.6458 15.87 21.3492 16.11 21.11C16.3492 20.87 16.6458 20.75 17 20.75H19L15.9688 17.7188C15.7396 17.4896 15.625 17.2083 15.625 16.875C15.625 16.5417 15.75 16.25 16 16C16.2292 15.7708 16.5208 15.6562 16.875 15.6562C17.2292 15.6562 17.5208 15.7708 17.75 16L20.75 19V17C20.75 16.6458 20.87 16.3487 21.11 16.1087C21.3492 15.8696 21.6458 15.75 22 15.75C22.3542 15.75 22.6508 15.8696 22.89 16.1087C23.13 16.3487 23.25 16.6458 23.25 17V22C23.25 22.3542 23.13 22.6508 22.89 22.89C22.6508 23.13 22.3542 23.25 22 23.25H17ZM2 23.25C1.64583 23.25 1.34917 23.13 1.11 22.89C0.87 22.6508 0.75 22.3542 0.75 22V17C0.75 16.6458 0.87 16.3487 1.11 16.1087C1.34917 15.8696 1.64583 15.75 2 15.75C2.35417 15.75 2.65125 15.8696 2.89125 16.1087C3.13042 16.3487 3.25 16.6458 3.25 17V19L6.28125 15.9688C6.51042 15.7396 6.79167 15.625 7.125 15.625C7.45833 15.625 7.75 15.75 8 16C8.22917 16.2292 8.34375 16.5208 8.34375 16.875C8.34375 17.2292 8.22917 17.5208 8 17.75L5 20.75H7C7.35417 20.75 7.65125 20.87 7.89125 21.11C8.13042 21.3492 8.25 21.6458 8.25 22C8.25 22.3542 8.13042 22.6508 7.89125 22.89C7.65125 23.13 7.35417 23.25 7 23.25H2Z" fill="black"/>
</svg>
